<svg xmlns="http://www.w3.org/2000/svg" viewBox="0 0 100 100" width="100" height="100">
  <!-- Storm cloud -->
  <g transform="translate(50, 40)">
    <!-- Main cloud body -->
    <ellipse cx="-10" cy="0" rx="25" ry="18" fill="#4a5568" opacity="0.9"/>
    <ellipse cx="10" cy="-2" rx="22" ry="16" fill="#2d3748"/>
    <ellipse cx="5" cy="5" rx="20" ry="15" fill="#1a202c"/>
    
    <!-- Lightning bolt -->
    <path d="M -5,10 L 2,25 L -3,25 L 5,45 L -2,30 L 3,30 L -5,10" 
          fill="#fbbf24" 
          stroke="#f59e0b" 
          stroke-width="1"
          opacity="0.95"/>
    
    <!-- Secondary smaller bolt -->
    <path d="M 12,8 L 15,18 L 12,18 L 16,28 L 12,20 L 15,20 L 12,8" 
          fill="#60a5fa" 
          stroke="#3b82f6" 
          stroke-width="0.5"
          opacity="0.8"/>
    
    <!-- Rain drops -->
    <g opacity="0.6">
      <line x1="-15" y1="10" x2="-17" y2="18" stroke="#60a5fa" stroke-width="2" stroke-linecap="round"/>
      <line x1="-8" y1="12" x2="-10" y2="20" stroke="#60a5fa" stroke-width="2" stroke-linecap="round"/>
      <line x1="15" y1="10" x2="13" y2="18" stroke="#60a5fa" stroke-width="2" stroke-linecap="round"/>
      <line x1="20" y1="8" x2="18" y2="16" stroke="#60a5fa" stroke-width="2" stroke-linecap="round"/>
    </g>
  </g>
</svg>